<svg xmlns="http://www.w3.org/2000/svg" width="20" height="18" viewBox="0 0 20 18" fill="none">
<path d="M0.909091 7.11279H3.63636V18H0.909091C0.407018 18 0 17.5938 0 17.0927V8.02005C0 7.51899 0.407018 7.11279 0.909091 7.11279ZM5.72081 5.9398L11.5395 0.132872C11.6994 -0.0267615 11.9526 -0.0447163 12.1335 0.0907293L12.9086 0.670871C13.3493 1.00068 13.5478 1.56265 13.4119 2.09533L12.3635 6.20552H18.1818C19.186 6.20552 20 7.01792 20 8.02005V9.92924C20 10.1663 19.9535 10.401 19.8631 10.6201L17.05 17.4381C16.9097 17.7781 16.5777 18 16.2094 18H6.36364C5.86156 18 5.45455 17.5938 5.45455 17.0927V6.58133C5.45455 6.34071 5.55033 6.10994 5.72081 5.9398Z" fill="#865CD0"/>
</svg>