<svg xmlns="http://www.w3.org/2000/svg" width="16" height="16" viewBox="0 0 16 16" fill="none">
<path d="M4.37639 4.11546L6.79903 1.56934C6.91518 1.44784 6.91518 1.25115 6.79903 1.12996C6.68317 1.00847 6.49498 1.00847 6.37912 1.12996L3.95855 3.67392L1.51561 1.09205C1.39976 0.969315 1.21157 0.969315 1.09571 1.09205C0.979858 1.2151 0.979858 1.41428 1.09571 1.53702L3.53688 4.11702L1.08689 6.69172C0.971036 6.81321 0.971036 7.00991 1.08689 7.13109C1.20274 7.2526 1.39093 7.2526 1.50679 7.13109L3.95472 4.55856L6.38794 7.13015C6.5038 7.25291 6.69199 7.25291 6.80784 7.13015C6.9237 7.00711 6.9237 6.80795 6.80784 6.68519L4.37639 4.11546Z" fill="#865CD0"/>
<path d="M12.2281 1.6818L12.0526 1.36099L11.8772 1.6818L9.32466 6.34846L9.16277 6.64444H9.50013H14.6051H14.9425L14.7806 6.34846L12.2281 1.6818Z" fill="#865CD0" stroke="white" stroke-width="0.4"/>
<rect x="0.8" y="8.57777" width="6.29474" height="6.62222" fill="#865CD0" stroke="white" stroke-width="0.4"/>
<path d="M12.0526 15.2C13.8009 15.2 15.2 13.7072 15.2 11.8889C15.2 10.0705 13.8009 8.57777 12.0526 8.57777C10.3043 8.57777 8.90526 10.0705 8.90526 11.8889C8.90526 13.7072 10.3043 15.2 12.0526 15.2Z" fill="#865CD0" stroke="white" stroke-width="0.4"/>
</svg>